<svg t="1687955094846" class="icon" viewBox="0 0 1024 1024" version="1.1" xmlns="http://www.w3.org/2000/svg" p-id="17178" width="200" height="200"><path d="M512 738.304c-181.248 0-327.68-146.432-327.68-327.68 181.248 0 327.68 146.432 327.68 327.68z" fill="#72C69C" p-id="17179"></path><path d="M512 753.664c-189.44 0-343.04-153.6-343.04-343.04 0-8.192 7.168-15.36 15.36-15.36 188.416 0 342.016 152.576 343.04 339.968v3.072c0 9.216-7.168 15.36-15.36 15.36zM199.68 427.008c8.192 159.744 136.192 287.744 295.936 295.936-7.168-159.744-136.192-288.768-295.936-295.936z" fill="#251C4E" p-id="17180"></path><path d="M512 738.304c181.248 0 327.68-146.432 327.68-327.68-181.248 0-327.68 146.432-327.68 327.68z" fill="#72C69C" p-id="17181"></path><path d="M512 753.664c-8.192 0-15.36-7.168-15.36-15.36 0-189.44 153.6-343.04 343.04-343.04 8.192 0 15.36 7.168 15.36 15.36 0 189.44-153.6 343.04-343.04 343.04z m312.32-326.656c-159.744 7.168-288.768 136.192-296.96 295.936 159.744-8.192 288.768-136.192 296.96-295.936z" fill="#251C4E" p-id="17182"></path><path d="M685.056 976.896H344.064c-32.768 0-61.44-22.528-68.608-54.272L227.328 706.56c-6.144-25.6 14.336-51.2 40.96-51.2h491.52c26.624 0 46.08 24.576 40.96 51.2l-48.128 215.04c-7.168 32.768-34.816 55.296-67.584 55.296z" fill="#FF6660" p-id="17183"></path><path d="M685.056 992.256H344.064c-39.936 0-74.752-27.648-82.944-66.56l-48.128-216.064c-4.096-17.408 0-34.816 11.264-48.128 11.264-13.312 26.624-21.504 45.056-21.504h491.52c17.408 0 33.792 8.192 45.056 21.504s15.36 30.72 11.264 48.128L768 925.696c-9.216 38.912-43.008 66.56-82.944 66.56zM268.288 670.72c-8.192 0-15.36 4.096-20.48 10.24s-7.168 14.336-5.12 22.528l48.128 216.064c5.12 25.6 27.648 43.008 53.248 43.008h340.992c25.6 0 47.104-17.408 53.248-43.008l48.128-216.064c2.048-8.192 0-16.384-5.12-22.528-5.12-6.144-12.288-10.24-20.48-10.24H268.288z" fill="#251C4E" p-id="17184"></path><path d="M584.704 99.328l11.264-12.288c36.864-40.96 101.376 7.168 72.704 54.272l-9.216 14.336 17.408-1.024c55.296-3.072 66.56 76.8 13.312 90.112l-16.384 4.096 12.288 11.264c40.96 36.864-7.168 101.376-54.272 72.704l-14.336-9.216 1.024 17.408c3.072 55.296-76.8 66.56-90.112 13.312l-5.12-16.384-11.264 12.288c-36.864 40.96-101.376-7.168-72.704-54.272l9.216-14.336-17.408 1.024c-55.296 3.072-66.56-76.8-13.312-90.112l16.384-4.096-12.288-11.264c-40.96-36.864 7.168-101.376 54.272-72.704l15.36 8.192-1.024-17.408c-3.072-55.296 76.8-66.56 90.112-13.312l4.096 17.408z" fill="#FDD838" p-id="17185"></path><path d="M571.392 404.48c-25.6 0-46.08-14.336-55.296-36.864-11.264 9.216-23.552 13.312-36.864 13.312-22.528 0-44.032-12.288-54.272-32.768-9.216-16.384-10.24-34.816-3.072-51.2-28.672-3.072-50.176-24.576-53.248-53.248-3.072-27.648 11.264-53.248 36.864-63.488-13.312-16.384-17.408-37.888-9.216-58.368 9.216-24.576 31.744-39.936 57.344-39.936 8.192 0 15.36 2.048 23.552 5.12 1.024-13.312 7.168-25.6 15.36-34.816 11.264-12.288 27.648-19.456 46.08-19.456 25.6 0 46.08 14.336 55.296 36.864 11.264-9.216 23.552-13.312 36.864-13.312 22.528 0 44.032 12.288 54.272 32.768 9.216 16.384 10.24 34.816 3.072 51.2 28.672 3.072 50.176 24.576 53.248 53.248 3.072 27.648-11.264 53.248-36.864 63.488 13.312 16.384 17.408 37.888 9.216 58.368-9.216 24.576-31.744 39.936-57.344 39.936-8.192 0-15.36-2.048-23.552-5.12-1.024 13.312-7.168 25.6-15.36 34.816-12.288 12.288-28.672 19.456-46.08 19.456z m-48.128-81.92h4.096c5.12 1.024 10.24 6.144 11.264 11.264l4.096 16.384c5.12 21.504 23.552 23.552 28.672 23.552 9.216 0 17.408-3.072 23.552-9.216 5.12-6.144 8.192-13.312 7.168-22.528l-1.024-17.408c0-6.144 3.072-11.264 7.168-14.336 5.12-3.072 11.264-3.072 15.36 0l14.336 9.216c5.12 3.072 11.264 5.12 16.384 5.12 12.288 0 23.552-8.192 28.672-20.48 3.072-7.168 5.12-20.48-8.192-32.768l-12.288-11.264c-4.096-4.096-6.144-9.216-4.096-15.36s6.144-10.24 11.264-11.264l16.384-4.096c19.456-5.12 24.576-20.48 22.528-32.768-1.024-12.288-10.24-26.624-29.696-26.624l-19.456 1.024c-6.144 0-11.264-3.072-14.336-7.168-3.072-5.12-3.072-11.264 0-15.36l10.24-15.36c8.192-12.288 5.12-23.552 1.024-29.696-6.144-10.24-16.384-16.384-27.648-16.384-8.192 0-15.36 3.072-21.504 10.24l-11.264 12.288c-4.096 4.096-9.216 6.144-15.36 4.096-5.12-1.024-10.24-6.144-11.264-11.264l-4.096-16.384c-5.12-21.504-23.552-23.552-28.672-23.552-9.216 0-17.408 3.072-23.552 9.216-5.12 6.144-8.192 13.312-7.168 22.528l1.024 17.408c0 6.144-3.072 11.264-7.168 14.336-5.12 3.072-11.264 3.072-15.36 0l-14.336-9.216c-5.12-3.072-11.264-5.12-16.384-5.12-12.288 0-23.552 8.192-28.672 20.48-3.072 7.168-5.12 20.48 8.192 32.768l12.288 11.264c4.096 4.096 6.144 9.216 4.096 15.36s-6.144 10.24-11.264 11.264l-16.384 4.096c-19.456 5.12-24.576 20.48-22.528 32.768 1.024 12.288 10.24 26.624 29.696 26.624l19.456-1.024c6.144 0 11.264 3.072 14.336 7.168 3.072 5.12 3.072 11.264 0 15.36l-9.216 14.336c-8.192 12.288-5.12 23.552-1.024 29.696 6.144 10.24 16.384 16.384 27.648 16.384 8.192 0 15.36-3.072 21.504-10.24l10.24-10.24c3.072-4.096 7.168-5.12 11.264-5.12z" fill="#251C4E" p-id="17186"></path><path d="M553.984 218.112m-51.2 0a51.2 51.2 0 1 0 102.4 0 51.2 51.2 0 1 0-102.4 0Z" fill="#FFFFFF" p-id="17187"></path><path d="M553.984 285.696c-5.12 0-11.264-1.024-16.384-2.048-17.408-4.096-31.744-15.36-40.96-30.72-9.216-15.36-11.264-33.792-7.168-50.176 7.168-29.696 33.792-50.176 64.512-50.176 5.12 0 11.264 1.024 16.384 2.048 35.84 9.216 57.344 46.08 48.128 80.896-7.168 28.672-33.792 50.176-64.512 50.176z m0-103.424c-16.384 0-30.72 11.264-34.816 27.648-2.048 9.216-1.024 19.456 4.096 27.648 5.12 8.192 12.288 14.336 22.528 16.384 3.072 1.024 6.144 1.024 9.216 1.024 16.384 0 30.72-11.264 34.816-27.648 5.12-19.456-7.168-38.912-25.6-44.032-4.096-1.024-7.168-1.024-10.24-1.024z" fill="#251C4E" p-id="17188"></path><path d="M512 670.72c-6.144 0-12.288-4.096-14.336-11.264-2.048-8.192-55.296-194.56 12.288-328.704 4.096-7.168 13.312-10.24 20.48-7.168s10.24 13.312 7.168 20.48c-62.464 124.928-11.264 305.152-10.24 307.2 2.048 8.192-2.048 16.384-10.24 19.456H512z" fill="#251C4E" p-id="17189"></path></svg>